<?xml version="1.0" encoding="UTF-8"?>
<svg id="Ebene_2" data-name="Ebene 2" xmlns="http://www.w3.org/2000/svg" viewBox="0 0 291.16 53.88">
  <defs>
    <style>
      .cls-1 {
        fill-rule: evenodd;
      }

      .cls-1 {
        fill: #8d9399;
      }

      .cls-2 {
        fill: #1a1a1a;
      }

      .cls-3 {
        opacity: .5;
      }

      .cls-4 {
        fill: #1a1a1a;
      }
    </style>
  </defs>
  <g id="artwork">
    <g>
      <g class="cls-3">
        <path class="cls-1" d="M33.61,3.68c-1.49,1.26-1.61,2.57-.48,4.3-5.24,2.55-9.75,6.32-14.34,10.04-4.02,3.25-9.89,7.09-11.95,12.43-1.1,2.85-.58,6.37-1.43,9.56-1.26,4.68-6.31,7.68-5.26,13.39.47-5.77,5.84-8.37,7.17-13.39.64-2.42-.33-5.31.48-8.13,3.03-10.61,18.58-15.78,25.81-22.95,2.05.08-.5-1.95-.48-2.87,34.81-3.38,79.31-9.78,113.77-.48,8.36,2.26,16.65,6.33,24.38,10.04,7.93,3.8,15.21,9.01,22.47,11.95,5.06,2.05,11.48,2.72,17.21,3.82,5.73,1.11,11.34,2.49,16.73,3.82,15.43,3.83,32.22,6.11,39.2,18.64.7-2.15-2.4-4.6-2.39-7.65-19.25-14.39-44.61-12.16-68.36-19.6-6.34-1.99-11.8-6.03-17.69-9.08C160.2,8.09,142.95,1.62,115.35.34c-27.35-1.27-54.08,1.33-81.74,3.35ZM46.99,12.29c-.12,2.35.59,3.87,2.39,4.3-.45-1.31-1.47-2.04-1.91-3.35,29.62-9.98,81.27-12.7,110.43-.48-.51-1.68-4-2.45-6.69-3.35C122.49-.19,74.31,2.97,46.99,12.29ZM37.91,14.68c-3.74-.82-14.36,4.71-16.25,5.74,5.61-1.72,11.06-3.6,16.25-5.74Z"/>
      </g>
      <g>
        <path class="cls-4" d="M81.49,37.79h-1.68l4.6-16.15h1.61l4.67,16.15h-1.66l-1.37-4.78h-4.84l-1.33,4.78ZM85.24,23.76l-1.99,7.77h3.97l-1.99-7.77Z"/>
        <path class="cls-4" d="M93.27,21.64v11.78c0,.94.13,1.77.81,2.42.55.55,1.37.72,2.18.72s1.64-.17,2.2-.72c.68-.65.81-1.48.81-2.42v-11.78h1.64v11.89c0,1.53-.35,2.53-1.13,3.32-.76.79-1.92,1.22-3.49,1.22s-2.75-.44-3.53-1.22c-.76-.79-1.11-1.79-1.11-3.32v-11.89h1.64Z"/>
        <path class="cls-4" d="M105.98,23.15h-3.27v-1.51h8.18v1.51h-3.27v14.64h-1.64v-14.64Z"/>
        <path class="cls-4" d="M111.15,29.69c0-4.73,2.01-8.34,5.87-8.34s5.87,3.6,5.87,8.36c0,4.15-1.64,8.36-5.87,8.36-3.86,0-5.87-3.6-5.87-8.36v-.02ZM112.83,29.74c0,4.41,1.59,6.85,4.19,6.85s4.21-2.44,4.21-6.87-1.61-6.87-4.21-6.87-4.19,2.44-4.19,6.87v.02Z"/>
        <path class="cls-4" d="M125.18,37.79v-16.15h1.64v7.14h5.74v-7.14h1.66v16.15h-1.66v-7.51h-5.74v7.51h-1.64Z"/>
        <path class="cls-4" d="M137.31,37.79h-1.68l4.6-16.15h1.61l4.67,16.15h-1.66l-1.37-4.78h-4.84l-1.33,4.78ZM141.06,23.76l-1.99,7.77h3.97l-1.99-7.77Z"/>
        <path class="cls-4" d="M149.08,21.64v11.78c0,.94.13,1.77.81,2.42.55.55,1.37.72,2.18.72s1.64-.17,2.2-.72c.68-.65.81-1.48.81-2.42v-11.78h1.64v11.89c0,1.53-.35,2.53-1.13,3.32-.76.79-1.92,1.22-3.49,1.22s-2.75-.44-3.53-1.22c-.76-.79-1.11-1.79-1.11-3.32v-11.89h1.64Z"/>
        <path class="cls-4" d="M160.49,33.34c.2,2.51,1.68,3.29,2.9,3.29,1.72,0,3.06-1.16,3.06-3.14,0-2.38-2.01-2.9-3.6-3.43-1.37-.48-3.69-1.29-3.69-4.19-.02-2.84,1.75-4.54,4.25-4.54s3.95,1.24,4.32,4.1h-1.57c-.15-1.2-.72-2.71-2.71-2.71-1.64,0-2.64,1.18-2.64,2.86,0,2.12,1.61,2.62,3.69,3.29,1.24.44,3.6,1.31,3.6,4.52,0,2.86-2.05,4.67-4.67,4.67s-4.45-1.53-4.54-4.73h1.59Z"/>
      </g>
      <g>
        <path class="cls-2" d="M171.95,21.36h3.36l2.09,10.34,2.14-10.34h2.92l2.14,10.34,2.01-10.34h3.32l-3.8,16.15h-2.92l-2.27-10.91-2.18,10.91h-2.92l-3.88-16.15Z"/>
        <path class="cls-2" d="M191.56,21.36h7.86v3.05h-4.54v3.1h4.54v3.05h-4.54v3.88h4.54v3.05h-7.86v-16.15Z"/>
        <path class="cls-2" d="M204.12,24.41h-2.71v-3.05h8.73v3.05h-2.71v13.09h-3.32v-13.09Z"/>
        <path class="cls-2" d="M213.81,24.41h-2.71v-3.05h8.73v3.05h-2.71v13.09h-3.32v-13.09Z"/>
        <path class="cls-2" d="M221.83,21.36h7.86v3.05h-4.54v3.1h4.54v3.05h-4.54v3.88h4.54v3.05h-7.86v-16.15Z"/>
        <path class="cls-2" d="M232.59,21.36h4.19c2.29,0,3.75.59,4.45,1.42.83,1,1.31,2.16,1.31,3.73,0,.87-.15,1.72-.48,2.44-.48,1.05-1.13,1.7-1.9,2.12l3.05,6.44h-3.71l-3.56-8.2c.37,0,.57,0,.83-.02.59-.04,1.22-.2,1.64-.61.55-.52.72-1.22.72-1.85,0-.79-.15-1.46-.76-1.96-.35-.31-.89-.44-1.7-.44h-.76v13.09h-3.32v-16.15Z"/>
        <path class="cls-2" d="M246.75,37.5h-3.36l4.41-16.15h3.05l4.58,16.15h-3.36l-.83-3.08h-3.71l-.79,3.08ZM249.36,26.09l-1.03,5.28h2.05l-1.03-5.28Z"/>
        <path class="cls-2" d="M259.57,21.36v11c0,.81.13,1.4.46,1.77.31.39.81.57,1.55.57s1.24-.17,1.57-.57c.31-.37.44-.96.44-1.77v-11h3.32v11.54c0,1.42-.35,2.66-1.2,3.51-.85.87-2.18,1.4-4.12,1.4s-3.27-.52-4.12-1.4c-.83-.85-1.2-2.09-1.2-3.51v-11.54h3.32Z"/>
        <path class="cls-2" d="M269.78,21.36h7.86v3.05h-4.54v3.1h4.54v3.05h-4.54v3.88h4.54v3.05h-7.86v-16.15Z"/>
        <path class="cls-2" d="M280.53,21.36h4.19c2.29,0,3.75.59,4.45,1.42.83,1,1.31,2.16,1.31,3.73,0,.87-.15,1.72-.48,2.44-.48,1.05-1.13,1.7-1.9,2.12l3.05,6.44h-3.71l-3.56-8.2c.37,0,.57,0,.83-.02.59-.04,1.22-.2,1.64-.61.55-.52.72-1.22.72-1.85,0-.79-.15-1.46-.76-1.96-.35-.31-.9-.44-1.7-.44h-.76v13.09h-3.32v-16.15Z"/>
      </g>
    </g>
  </g>
</svg>
